<svg width="32" height="34" viewBox="0 0 32 34" fill="none" xmlns="http://www.w3.org/2000/svg">
<path d="M29.1231 1.65356H2.83634C1.93596 1.65356 1.20605 2.41433 1.20605 3.35279V30.7512C1.20605 31.6897 1.93596 32.4504 2.83634 32.4504H29.1231C30.0235 32.4504 30.7534 31.6897 30.7534 30.7512V3.35279C30.7534 2.41433 30.0235 1.65356 29.1231 1.65356Z" fill="#3D5A98"/>
<path d="M21.5907 32.4479V20.522H25.4305L26.0047 15.8745H21.5907V12.908C21.5907 11.5627 21.9502 10.6441 23.8002 10.6441H26.162V6.48063C25.0183 6.3564 23.869 6.29733 22.7192 6.30369C19.3188 6.30369 16.977 8.4635 16.977 12.4474V15.8745H13.1372V20.522H16.977V32.4479H21.5907Z" fill="white"/>
</svg>
