<svg width="33" height="34" viewBox="0 0 33 34" fill="none" xmlns="http://www.w3.org/2000/svg">
<g clip-path="url(#clip0_2108_164)">
<path d="M24.9882 0.396729H8.01129C3.87479 0.396729 0.521484 3.89184 0.521484 8.20329V25.8982C0.521484 30.2096 3.87479 33.7047 8.01129 33.7047H24.9882C29.1247 33.7047 32.478 30.2096 32.478 25.8982V8.20329C32.478 3.89184 29.1247 0.396729 24.9882 0.396729Z" fill="url(#paint0_radial_2108_164)"/>
<path d="M24.9882 0.396729H8.01129C3.87479 0.396729 0.521484 3.89184 0.521484 8.20329V25.8982C0.521484 30.2096 3.87479 33.7047 8.01129 33.7047H24.9882C29.1247 33.7047 32.478 30.2096 32.478 25.8982V8.20329C32.478 3.89184 29.1247 0.396729 24.9882 0.396729Z" fill="url(#paint1_radial_2108_164)"/>
<path d="M16.5007 4.03979C13.1106 4.03979 12.6851 4.05528 11.3536 4.11838C10.0247 4.18187 9.11754 4.40111 8.32387 4.72287C7.50273 5.05517 6.80631 5.49975 6.1125 6.22316C5.41807 6.94644 4.99153 7.67232 4.67171 8.52779C4.36213 9.35528 4.15154 10.3012 4.09175 11.6857C4.03221 13.0735 4.0166 13.5172 4.0166 17.0509C4.0166 20.5845 4.03158 21.0266 4.092 22.4144C4.15317 23.7995 4.3635 24.745 4.67196 25.5722C4.99103 26.4281 5.41757 27.154 6.11163 27.8771C6.80531 28.6009 7.50173 29.0465 8.32224 29.3788C9.11654 29.7006 10.0238 29.9198 11.3525 29.9833C12.6841 30.0464 13.1092 30.0619 16.4992 30.0619C19.8898 30.0619 20.3139 30.0464 21.6454 29.9833C22.9743 29.9198 23.8824 29.7006 24.6767 29.3788C25.4975 29.0465 26.1929 28.6009 26.8865 27.8771C27.5809 27.154 28.0073 26.4281 28.3273 25.5726C28.6341 24.745 28.8448 23.7992 28.9072 22.4146C28.967 21.0269 28.9826 20.5845 28.9826 17.0509C28.9826 13.5172 28.967 13.0738 28.9072 11.6859C28.8448 10.3008 28.6341 9.35541 28.3273 8.52818C28.0073 7.67232 27.5809 6.94644 26.8865 6.22316C26.1922 5.49949 25.4977 5.05491 24.676 4.723C23.8802 4.40111 22.9726 4.18174 21.6436 4.11838C20.3121 4.05528 19.8881 4.03979 16.4969 4.03979H16.5007ZM15.3809 6.3845C15.7133 6.38397 16.0842 6.3845 16.5007 6.3845C19.8338 6.3845 20.2288 6.39699 21.545 6.45931C22.7621 6.51734 23.4227 6.72929 23.8627 6.9074C24.4453 7.14316 24.8606 7.42511 25.2973 7.88062C25.7342 8.33601 26.0046 8.76966 26.2314 9.37688C26.4023 9.83486 26.6059 10.5234 26.6613 11.792C26.7211 13.1636 26.7341 13.5755 26.7341 17.0479C26.7341 20.5202 26.7211 20.9323 26.6613 22.3038C26.6056 23.5723 26.4023 24.2609 26.2314 24.719C26.0052 25.3262 25.7342 25.7586 25.2973 26.2137C24.8604 26.6691 24.4456 26.9509 23.8627 27.1868C23.4232 27.3657 22.7621 27.5771 21.545 27.6351C20.229 27.6974 19.8338 27.711 16.5007 27.711C13.1675 27.711 12.7724 27.6974 11.4566 27.6351C10.2395 27.5766 9.57891 27.3646 9.13851 27.1865C8.55605 26.9506 8.13987 26.6688 7.70296 26.2134C7.26606 25.758 6.99567 25.3254 6.76886 24.7179C6.59796 24.2598 6.39437 23.5713 6.33894 22.3027C6.27915 20.9311 6.26716 20.5192 6.26716 17.0446C6.26716 13.5702 6.27915 13.1603 6.33894 11.7887C6.39462 10.5202 6.59796 9.83161 6.76886 9.37298C6.99517 8.76576 7.26606 8.3321 7.70309 7.87672C8.13999 7.42134 8.55605 7.13939 9.13863 6.90311C9.57866 6.72421 10.2395 6.51278 11.4566 6.45449C12.6082 6.40024 13.0544 6.38397 15.3809 6.38124V6.3845ZM23.1642 8.54483C22.3372 8.54483 21.6662 9.24352 21.6662 10.1056C21.6662 10.9676 22.3372 11.6669 23.1642 11.6669C23.9912 11.6669 24.6621 10.9676 24.6621 10.1056C24.6621 9.24365 23.9912 8.54431 23.1642 8.54431V8.54483ZM16.5007 10.3691C12.9606 10.3691 10.0902 13.3608 10.0902 17.0509C10.0902 20.7409 12.9606 23.7312 16.5007 23.7312C20.041 23.7312 22.9104 20.7409 22.9104 17.0509C22.9104 13.361 20.0408 10.3691 16.5005 10.3691H16.5007ZM16.5007 12.7138C18.7987 12.7138 20.6618 14.6554 20.6618 17.0509C20.6618 19.446 18.7987 21.3879 16.5007 21.3879C14.2026 21.3879 12.3398 19.446 12.3398 17.0509C12.3398 14.6554 14.2026 12.7138 16.5007 12.7138Z" fill="white"/>
</g>
<defs>
<radialGradient id="paint0_radial_2108_164" cx="0" cy="0" r="1" gradientUnits="userSpaceOnUse" gradientTransform="translate(9.00994 36.2701) rotate(-90) scale(33.0107 29.4568)">
<stop stop-color="#FFDD55"/>
<stop offset="0.1" stop-color="#FFDD55"/>
<stop offset="0.5" stop-color="#FF543E"/>
<stop offset="1" stop-color="#C837AB"/>
</radialGradient>
<radialGradient id="paint1_radial_2108_164" cx="0" cy="0" r="1" gradientUnits="userSpaceOnUse" gradientTransform="translate(-4.83136 2.79607) rotate(79.1291) scale(14.7333 58.4462)">
<stop stop-color="#3771C8"/>
<stop offset="0.128" stop-color="#3771C8"/>
<stop offset="1" stop-color="#6600FF" stop-opacity="0"/>
</radialGradient>
<clipPath id="clip0_2108_164">
<rect width="31.9565" height="33.308" fill="white" transform="translate(0.521484 0.396729)"/>
</clipPath>
</defs>
</svg>
