<svg width="551" height="197" viewBox="0 0 551 197" fill="none" xmlns="http://www.w3.org/2000/svg">
<path d="M82.5 137.23C69 148.73 88.4441 149.23 68.5 153.73C47 161.73 0 181.627 0 164.23C0 146.833 3.91504 149.5 21.915 132.5C39.915 115.5 47 137.23 82.5 137.23Z" fill="url(#paint0_linear_2133_725)"/>
<path d="M490.915 123.052C497.683 113.564 487.234 109.701 498.575 109.586C509.915 109.471 526.915 105.509 526.915 119.862C526.915 134.215 521.116 129.076 511.979 129.076C502.841 129.076 506.616 129.081 490.915 123.052Z" fill="url(#paint1_linear_2133_725)"/>
<path d="M469.606 113.658C468.193 111.458 469.964 108.954 472.579 108.906L490.976 108.572C493.161 108.532 494.973 110.253 495.046 112.438L495.405 123.212C495.543 127.328 489.543 129.302 486.725 126.3C483.899 123.29 480.779 120.716 477.915 120C473.866 118.988 471.226 116.182 469.606 113.658Z" fill="#E9880A"/>
<path d="M76.2365 151.958C71.3941 151.078 75.4649 142.835 76.5083 140.875C76.6562 140.597 76.8711 140.369 77.1385 140.203C78.4769 139.372 82.8837 136.778 86.236 136.458C90.2355 136.076 108.915 135 103.915 141.5C98.915 148 88.9149 151 87.415 151.5C85.9151 152 78.9154 152.445 76.2365 151.958Z" fill="#E9880A"/>
<path d="M181.792 187.898L373.292 187.398" stroke="white" stroke-width="5" stroke-linecap="round"/>
<path d="M373.608 187.004C371.109 106.504 467.108 119.504 460.109 183.004" stroke="white" stroke-width="5" stroke-linecap="round"/>
<path d="M97.792 186.898C97.7925 110.898 189.604 127.154 181.792 187.399" stroke="white" stroke-width="5" stroke-linecap="round"/>
<path d="M460.492 183.618C502.792 179.898 504.792 170.898 506.292 138.898" stroke="white" stroke-width="5" stroke-linecap="round"/>
<path d="M498.792 92.8985C490.312 121.722 498.812 137.722 506.292 138.898" stroke="white" stroke-width="5" stroke-linecap="round"/>
<path d="M498.761 92.4104C460.906 103.9 407.011 68.9303 365.292 59.8984" stroke="white" stroke-width="5" stroke-linecap="round"/>
<path d="M367.792 60.3984C326.292 53.8984 281.291 59.3984 257.792 64.3984C234.292 69.3984 200.159 90.916 179.291 110.398" stroke="white" stroke-width="5" stroke-linecap="round"/>
<path d="M97.792 186.898H68.792" stroke="white" stroke-width="5" stroke-linecap="round"/>
<path d="M73.792 152.898L73.792 177.898" stroke="white" stroke-width="5" stroke-linecap="round"/>
<path d="M73.792 177.898L68.792 186.898" stroke="white" stroke-width="5" stroke-linecap="round"/>
<path d="M73.7916 153.398C74.792 131.399 108.291 115.398 179.292 111.898" stroke="white" stroke-width="5" stroke-linecap="round"/>
<path d="M174.905 113.799L174.847 110.487L265.908 110.554L174.905 113.799Z" fill="white" stroke="white"/>
<path d="M310.998 119.735C310.998 119.735 379.398 117.018 386.398 115.018C393.398 113.018 398.975 116.736 387.898 119.018C376.822 121.301 310.998 119.735 310.998 119.735Z" fill="#E9880A"/>
<path d="M389.9 114.018C395.399 112.518 397.398 111.018 400.898 107.518C404.398 104.018 409.299 88.7121 409.299 88.7121L405.42 106.959C405.42 106.959 403.898 114.018 397.298 116.32C390.698 118.623 386.398 120.018 383.543 118.508C380.687 116.998 384.4 115.518 389.9 114.018Z" fill="#E9880A"/>
<path d="M152.578 150.754C152.578 150.754 136.578 147.755 125.578 152.255C114.578 156.755 111.078 171.254 112.078 166.754C113.078 162.254 113.578 161.254 114.578 159.254C115.578 157.254 118.039 153.984 119.078 153.254C121.212 151.754 123.735 148.526 132.836 147.223C141.937 145.92 152.578 150.754 152.578 150.754Z" fill="#E9880A"/>
<path d="M429.578 147.754C429.578 147.754 413.578 144.755 402.578 149.255C391.578 153.755 388.078 168.254 389.078 163.754C390.078 159.254 390.578 158.254 391.578 156.254C392.578 154.254 395.039 150.984 396.078 150.254C398.212 148.754 400.735 145.526 409.836 144.223C418.937 142.92 429.578 147.754 429.578 147.754Z" fill="#E9880A"/>
<path d="M120.323 78.056C114.867 78.056 110.35 75.856 106.771 71.456C103.192 66.9973 101.403 61.1893 101.403 54.032C101.403 46.8747 102.635 40.3627 105.099 34.496C107.563 28.5707 111.083 23.76 115.659 20.064C120.235 16.368 125.104 14.52 130.267 14.52C135.488 14.52 139.683 15.6933 142.851 18.04C146.078 20.3867 147.691 23.2027 147.691 26.488C147.691 29.7147 146.723 32.472 144.787 34.76C142.91 34.76 140.798 34.3493 138.451 33.528C136.104 32.7067 134.344 31.7093 133.171 30.536L134.843 21.648C133.435 20.768 131.587 20.328 129.299 20.328C125.72 20.328 122.552 23.408 119.795 29.568C117.038 35.6693 115.659 43.208 115.659 52.184C115.659 58.1093 116.627 62.4213 118.563 65.12C120.558 67.76 122.963 69.08 125.779 69.08C130.414 69.08 134.872 66.9093 139.155 62.568L142.763 65.824C142.118 66.7627 140.944 68.0533 139.243 69.696C137.542 71.3387 135.87 72.7173 134.227 73.832C132.584 74.888 130.502 75.856 127.979 76.736C125.456 77.616 122.904 78.056 120.323 78.056ZM173.474 40.568C173.592 40.4507 173.914 39.688 174.442 38.28C177.2 38.28 180.896 39.1013 185.53 40.744C184.064 45.6133 182.89 50.7173 182.01 56.056C181.13 61.336 180.69 65.12 180.69 67.408C180.69 69.6373 180.925 70.752 181.394 70.752C181.746 70.752 183.037 70.1947 185.266 69.08L186.322 68.552L187.906 71.632C187.378 72.1013 186.674 72.688 185.794 73.392C184.973 74.096 183.389 75.064 181.042 76.296C178.696 77.4693 176.584 78.056 174.706 78.056C171.069 78.056 168.957 76.4133 168.37 73.128C164.616 76.4133 161.213 78.056 158.162 78.056C155.17 78.056 152.618 76.8827 150.506 74.536C148.453 72.1893 147.426 68.4933 147.426 63.448C147.426 55.5867 149.04 49.3973 152.266 44.88C155.493 40.304 159.394 38.016 163.97 38.016C167.256 38.016 170.424 38.8667 173.474 40.568ZM163.442 70.576C164.85 70.576 166.434 70.0187 168.194 68.904C168.605 60.632 169.984 52.448 172.33 44.352C170.57 43.5893 169.074 43.208 167.842 43.208C165.73 43.208 163.912 45.2907 162.386 49.456C160.92 53.5627 160.186 58.1093 160.186 63.096C160.186 68.0827 161.272 70.576 163.442 70.576ZM191.292 77.264H190.676C190.558 76.7947 190.5 75.7387 190.5 74.096C190.5 72.3947 191.292 67.8773 192.876 60.544C194.46 53.2107 195.252 49.016 195.252 47.96C195.252 46.1413 194.43 44.1467 192.788 41.976L191.996 40.92L192.084 39.776C195.252 38.896 200.326 38.456 207.308 38.456C208.012 39.9813 208.364 42.1227 208.364 44.88C209.009 43.824 210.358 42.416 212.412 40.656C214.465 38.896 216.577 38.016 218.748 38.016C221.916 38.016 223.5 40.7733 223.5 46.288C223.206 46.64 222.796 47.1093 222.268 47.696C221.798 48.224 220.801 48.9867 219.276 49.984C217.809 50.9813 216.372 51.5973 214.964 51.832C214.905 51.832 214.406 51.04 213.468 49.456C212.529 47.872 211.825 47.08 211.356 47.08C209.889 47.608 208.598 48.488 207.484 49.72C204.785 61.864 203.436 69.7253 203.436 73.304C203.436 74.5947 203.465 75.504 203.524 76.032C201.47 76.8533 197.393 77.264 191.292 77.264ZM261.186 72.776C260.482 74.5947 259.368 76.032 257.842 77.088C256.376 78.144 254.616 78.672 252.562 78.672C250.568 78.672 247.546 77.44 243.498 74.976C239.509 72.512 236.312 70.928 233.906 70.224C232.322 72.336 230.533 74.096 228.538 75.504C226.544 76.912 225.165 77.616 224.402 77.616C223.816 77.616 222.642 76.3547 220.882 73.832C219.122 71.2507 218.242 69.4027 218.242 68.288C218.242 67.6427 219.152 66.6747 220.97 65.384C222.848 64.0933 224.813 63.2133 226.866 62.744C228.333 59.1653 229.858 53.8853 231.442 46.904C233.026 39.864 234.258 32.6187 235.138 25.168C235.138 24.2293 234.816 23.1147 234.17 21.824C233.584 20.4747 232.968 19.3893 232.322 18.568L231.442 17.336L231.706 16.016C235.226 15.0187 241.005 14.52 249.042 14.52C249.805 15.8107 250.186 17.776 250.186 20.416C250.186 23.056 249.424 26.9867 247.898 32.208C246.373 37.4293 244.261 43.7067 241.562 51.04C238.922 58.3147 237.397 62.6267 236.986 63.976C237.221 64.0347 237.954 64.24 239.186 64.592C240.418 64.944 241.21 65.1787 241.562 65.296C241.973 65.3547 242.736 65.5307 243.85 65.824C244.965 66.0587 245.845 66.2347 246.49 66.352C247.136 66.4107 247.986 66.4987 249.042 66.616C250.861 66.9093 252.562 67.056 254.146 67.056C255.789 67.056 256.962 66.6453 257.666 65.824L260.13 61.248L263.034 61.952C263.034 65.7653 262.418 69.3733 261.186 72.776ZM266.376 70.4C266.376 67.8773 267.139 63.5947 268.664 57.552C270.19 51.4507 270.952 47.7253 270.952 46.376C270.952 44.968 269.896 43.12 267.784 40.832L267.872 39.688C271.862 38.8667 277.112 38.456 283.624 38.456C283.918 39.2187 284.064 40.5973 284.064 42.592C284.064 44.5867 283.243 48.84 281.6 55.352C279.958 61.864 279.136 65.912 279.136 67.496C279.136 69.08 279.723 69.872 280.896 69.872C282.598 69.872 284.563 69.256 286.792 68.024C287.027 66.616 287.614 63.9173 288.552 59.928C290.664 50.5413 291.72 43.824 291.72 39.776C293.774 38.9547 297.47 38.544 302.808 38.544H304.48C304.48 41.3013 303.659 46.6987 302.016 54.736C300.374 62.7147 299.552 67.408 299.552 68.816C299.552 70.1653 299.846 70.84 300.432 70.84C300.784 70.84 302.456 70.136 305.448 68.728L307.12 71.544C301.899 75.8853 297.323 78.056 293.392 78.056C291.515 78.056 289.902 77.528 288.552 76.472C287.262 75.416 286.528 74.0373 286.352 72.336C281.6 76.208 277.288 78.144 273.416 78.144C271.363 78.144 269.662 77.4693 268.312 76.12C267.022 74.7707 266.376 72.864 266.376 70.4ZM337.472 71.016C337.824 71.016 338.997 70.488 340.992 69.432L341.872 68.992L343.456 72.072C342.987 72.5413 342.371 73.0987 341.608 73.744C340.845 74.3893 339.349 75.2693 337.12 76.384C334.949 77.4987 332.867 78.056 330.872 78.056C328.936 78.056 327.352 77.5573 326.12 76.56C324.947 75.504 323.979 73.8027 323.216 71.456L321.192 65.208C316.792 69.96 313.507 74.2133 311.336 77.968C310.925 77.968 309.899 77.6747 308.256 77.088C306.672 76.5013 305.499 76.0027 304.736 75.592C306.437 72.6 311.336 67.2907 319.432 59.664C317.379 53.504 315.736 49.192 314.504 46.728C314.269 46.2587 312.861 44.5867 310.28 41.712L310.544 40.656L315.912 39.512C319.021 39.0427 321.779 38.7493 324.184 38.632C325.416 39.6293 326.384 41.4773 327.088 44.176C327.851 46.8747 328.437 48.928 328.848 50.336C333.189 45.584 336.035 41.5947 337.384 38.368C339.027 38.6027 340.64 39.2187 342.224 40.216L343.016 40.656C340.963 44.528 336.797 49.6027 330.52 55.88C331.165 58.1093 331.752 59.9573 332.28 61.424C334.509 67.8187 336.24 71.016 337.472 71.016Z" fill="white"/>
<path d="M114.408 81.056C108.952 81.056 104.435 78.856 100.856 74.456C97.2773 69.9973 95.488 64.1893 95.488 57.032C95.488 49.8747 96.72 43.3627 99.184 37.496C101.648 31.5707 105.168 26.76 109.744 23.064C114.32 19.368 119.189 17.52 124.352 17.52C129.573 17.52 133.768 18.6933 136.936 21.04C140.163 23.3867 141.776 26.2027 141.776 29.488C141.776 32.7147 140.808 35.472 138.872 37.76C136.995 37.76 134.883 37.3493 132.536 36.528C130.189 35.7067 128.429 34.7093 127.256 33.536L128.928 24.648C127.52 23.768 125.672 23.328 123.384 23.328C119.805 23.328 116.637 26.408 113.88 32.568C111.123 38.6693 109.744 46.208 109.744 55.184C109.744 61.1093 110.712 65.4213 112.648 68.12C114.643 70.76 117.048 72.08 119.864 72.08C124.499 72.08 128.957 69.9093 133.24 65.568L136.848 68.824C136.203 69.7627 135.029 71.0533 133.328 72.696C131.627 74.3387 129.955 75.7173 128.312 76.832C126.669 77.888 124.587 78.856 122.064 79.736C119.541 80.616 116.989 81.056 114.408 81.056ZM167.559 43.568C167.677 43.4507 167.999 42.688 168.527 41.28C171.285 41.28 174.981 42.1013 179.615 43.744C178.149 48.6133 176.975 53.7173 176.095 59.056C175.215 64.336 174.775 68.12 174.775 70.408C174.775 72.6373 175.01 73.752 175.479 73.752C175.831 73.752 177.122 73.1947 179.351 72.08L180.407 71.552L181.991 74.632C181.463 75.1013 180.759 75.688 179.879 76.392C179.058 77.096 177.474 78.064 175.127 79.296C172.781 80.4693 170.669 81.056 168.791 81.056C165.154 81.056 163.042 79.4133 162.455 76.128C158.701 79.4133 155.298 81.056 152.247 81.056C149.255 81.056 146.703 79.8827 144.591 77.536C142.538 75.1893 141.511 71.4933 141.511 66.448C141.511 58.5867 143.125 52.3973 146.351 47.88C149.578 43.304 153.479 41.016 158.055 41.016C161.341 41.016 164.509 41.8667 167.559 43.568ZM157.527 73.576C158.935 73.576 160.519 73.0187 162.279 71.904C162.69 63.632 164.069 55.448 166.415 47.352C164.655 46.5893 163.159 46.208 161.927 46.208C159.815 46.208 157.997 48.2907 156.471 52.456C155.005 56.5627 154.271 61.1093 154.271 66.096C154.271 71.0827 155.357 73.576 157.527 73.576ZM185.377 80.264H184.761C184.643 79.7947 184.585 78.7387 184.585 77.096C184.585 75.3947 185.377 70.8773 186.961 63.544C188.545 56.2107 189.337 52.016 189.337 50.96C189.337 49.1413 188.515 47.1467 186.873 44.976L186.081 43.92L186.169 42.776C189.337 41.896 194.411 41.456 201.393 41.456C202.097 42.9813 202.449 45.1227 202.449 47.88C203.094 46.824 204.443 45.416 206.497 43.656C208.55 41.896 210.662 41.016 212.833 41.016C216.001 41.016 217.585 43.7733 217.585 49.288C217.291 49.64 216.881 50.1093 216.353 50.696C215.883 51.224 214.886 51.9867 213.361 52.984C211.894 53.9813 210.457 54.5973 209.049 54.832C208.99 54.832 208.491 54.04 207.553 52.456C206.614 50.872 205.91 50.08 205.441 50.08C203.974 50.608 202.683 51.488 201.569 52.72C198.87 64.864 197.521 72.7253 197.521 76.304C197.521 77.5947 197.55 78.504 197.609 79.032C195.555 79.8533 191.478 80.264 185.377 80.264ZM255.271 75.776C254.567 77.5947 253.453 79.032 251.927 80.088C250.461 81.144 248.701 81.672 246.647 81.672C244.653 81.672 241.631 80.44 237.583 77.976C233.594 75.512 230.397 73.928 227.991 73.224C226.407 75.336 224.618 77.096 222.623 78.504C220.629 79.912 219.25 80.616 218.487 80.616C217.901 80.616 216.727 79.3547 214.967 76.832C213.207 74.2507 212.327 72.4027 212.327 71.288C212.327 70.6427 213.237 69.6747 215.055 68.384C216.933 67.0933 218.898 66.2133 220.951 65.744C222.418 62.1653 223.943 56.8853 225.527 49.904C227.111 42.864 228.343 35.6187 229.223 28.168C229.223 27.2293 228.901 26.1147 228.255 24.824C227.669 23.4747 227.053 22.3893 226.407 21.568L225.527 20.336L225.791 19.016C229.311 18.0187 235.09 17.52 243.127 17.52C243.89 18.8107 244.271 20.776 244.271 23.416C244.271 26.056 243.509 29.9867 241.983 35.208C240.458 40.4293 238.346 46.7067 235.647 54.04C233.007 61.3147 231.482 65.6267 231.071 66.976C231.306 67.0347 232.039 67.24 233.271 67.592C234.503 67.944 235.295 68.1787 235.647 68.296C236.058 68.3547 236.821 68.5307 237.935 68.824C239.05 69.0587 239.93 69.2347 240.575 69.352C241.221 69.4107 242.071 69.4987 243.127 69.616C244.946 69.9093 246.647 70.056 248.231 70.056C249.874 70.056 251.047 69.6453 251.751 68.824L254.215 64.248L257.119 64.952C257.119 68.7653 256.503 72.3733 255.271 75.776ZM260.461 73.4C260.461 70.8773 261.224 66.5947 262.749 60.552C264.275 54.4507 265.037 50.7253 265.037 49.376C265.037 47.968 263.981 46.12 261.869 43.832L261.957 42.688C265.947 41.8667 271.197 41.456 277.709 41.456C278.003 42.2187 278.149 43.5973 278.149 45.592C278.149 47.5867 277.328 51.84 275.685 58.352C274.043 64.864 273.221 68.912 273.221 70.496C273.221 72.08 273.808 72.872 274.981 72.872C276.683 72.872 278.648 72.256 280.877 71.024C281.112 69.616 281.699 66.9173 282.637 62.928C284.749 53.5413 285.805 46.824 285.805 42.776C287.859 41.9547 291.555 41.544 296.893 41.544H298.565C298.565 44.3013 297.744 49.6987 296.101 57.736C294.459 65.7147 293.637 70.408 293.637 71.816C293.637 73.1653 293.931 73.84 294.517 73.84C294.869 73.84 296.541 73.136 299.533 71.728L301.205 74.544C295.984 78.8853 291.408 81.056 287.477 81.056C285.6 81.056 283.987 80.528 282.637 79.472C281.347 78.416 280.613 77.0373 280.437 75.336C275.685 79.208 271.373 81.144 267.501 81.144C265.448 81.144 263.747 80.4693 262.397 79.12C261.107 77.7707 260.461 75.864 260.461 73.4ZM331.557 74.016C331.909 74.016 333.082 73.488 335.077 72.432L335.957 71.992L337.541 75.072C337.072 75.5413 336.456 76.0987 335.693 76.744C334.93 77.3893 333.434 78.2693 331.205 79.384C329.034 80.4987 326.952 81.056 324.957 81.056C323.021 81.056 321.437 80.5573 320.205 79.56C319.032 78.504 318.064 76.8027 317.301 74.456L315.277 68.208C310.877 72.96 307.592 77.2133 305.421 80.968C305.01 80.968 303.984 80.6747 302.341 80.088C300.757 79.5013 299.584 79.0027 298.821 78.592C300.522 75.6 305.421 70.2907 313.517 62.664C311.464 56.504 309.821 52.192 308.589 49.728C308.354 49.2587 306.946 47.5867 304.365 44.712L304.629 43.656L309.997 42.512C313.106 42.0427 315.864 41.7493 318.269 41.632C319.501 42.6293 320.469 44.4773 321.173 47.176C321.936 49.8747 322.522 51.928 322.933 53.336C327.274 48.584 330.12 44.5947 331.469 41.368C333.112 41.6027 334.725 42.2187 336.309 43.216L337.101 43.656C335.048 47.528 330.882 52.6027 324.605 58.88C325.25 61.1093 325.837 62.9573 326.365 64.424C328.594 70.8187 330.325 74.016 331.557 74.016Z" fill="#E9630A"/>
<path d="M357 57L467 56.009" stroke="url(#paint2_linear_2133_725)" stroke-width="2" stroke-linecap="round"/>
<path d="M460 185H550" stroke="url(#paint3_linear_2133_725)" stroke-width="2" stroke-linecap="round"/>
<path d="M504 163H531" stroke="url(#paint4_linear_2133_725)" stroke-width="2" stroke-linecap="round"/>
<path d="M498 91H528" stroke="url(#paint5_linear_2133_725)" stroke-width="2" stroke-linecap="round"/>
<path d="M506 138H546" stroke="url(#paint6_linear_2133_725)" stroke-width="2" stroke-linecap="round"/>
<path d="M113 97L173 97" stroke="url(#paint7_linear_2133_725)" stroke-width="2" stroke-linecap="round"/>
<path d="M409 74H529" stroke="url(#paint8_linear_2133_725)" stroke-width="2" stroke-linecap="round"/>
<defs>
<linearGradient id="paint0_linear_2133_725" x1="27.415" y1="141" x2="93.415" y2="150" gradientUnits="userSpaceOnUse">
<stop stop-color="#D9D9D9" stop-opacity="0"/>
<stop offset="1" stop-color="#FFB144" stop-opacity="0.6"/>
</linearGradient>
<linearGradient id="paint1_linear_2133_725" x1="516.617" y1="119.937" x2="483.142" y2="117.163" gradientUnits="userSpaceOnUse">
<stop stop-color="#D9D9D9" stop-opacity="0"/>
<stop offset="1" stop-color="#ECA239"/>
</linearGradient>
<linearGradient id="paint2_linear_2133_725" x1="357.005" y1="57.5" x2="467.005" y2="56.509" gradientUnits="userSpaceOnUse">
<stop stop-color="white"/>
<stop offset="1" stop-color="#E9880A" stop-opacity="0.1"/>
</linearGradient>
<linearGradient id="paint3_linear_2133_725" x1="460" y1="185.5" x2="550" y2="185.5" gradientUnits="userSpaceOnUse">
<stop stop-color="white"/>
<stop offset="1" stop-color="#E9880A" stop-opacity="0.1"/>
</linearGradient>
<linearGradient id="paint4_linear_2133_725" x1="504" y1="163.5" x2="531" y2="163.5" gradientUnits="userSpaceOnUse">
<stop stop-color="white"/>
<stop offset="1" stop-color="#E9880A" stop-opacity="0.1"/>
</linearGradient>
<linearGradient id="paint5_linear_2133_725" x1="498" y1="91.5" x2="528" y2="91.5" gradientUnits="userSpaceOnUse">
<stop stop-color="white"/>
<stop offset="1" stop-color="#E9880A" stop-opacity="0.1"/>
</linearGradient>
<linearGradient id="paint6_linear_2133_725" x1="506" y1="138.5" x2="546" y2="138.5" gradientUnits="userSpaceOnUse">
<stop stop-color="white"/>
<stop offset="1" stop-color="#E9880A" stop-opacity="0.1"/>
</linearGradient>
<linearGradient id="paint7_linear_2133_725" x1="113" y1="96.5" x2="173" y2="96.5" gradientUnits="userSpaceOnUse">
<stop stop-color="#E9880A" stop-opacity="0"/>
<stop offset="0.60102" stop-color="white" stop-opacity="0.8"/>
<stop offset="1" stop-color="#E9880A" stop-opacity="0"/>
</linearGradient>
<linearGradient id="paint8_linear_2133_725" x1="409" y1="74.5" x2="529" y2="74.5" gradientUnits="userSpaceOnUse">
<stop stop-color="white"/>
<stop offset="1" stop-color="#E9880A" stop-opacity="0.1"/>
</linearGradient>
</defs>
</svg>
